[Header]
# KeyWord<space>Value<CR>FileType htr
DataType HTRS
FileVersion 1.0
NumSegments 32
NumFrames 4
DataFrameRate 24
EulerRotationOrder XYZ
CalibrationUnits m
RotationUnits Degrees
GlobalAxisofGravity Z
BoneLengthAxis Z
BoneLengthAxis Z
ScaleFactor 1.00
[SegmentNames&Hierarchy]
# ObjectName<tab>ParentObjectName<CR>
pelvis	GLOBAL
spine01	pelvis
spine02	spine01
spine03	spine02
neck	spine03
head	neck
Collar_left	spine03
shoulder_up_left	Collar_left
bicep_up_left	shoulder_up_left
forearm_up_left	bicep_up_left
hand_up_left	forearm_up_left
shoulder_down_left	Collar_left
bicep_down_left	shoulder_down_left
forearm_down_left	bicep_down_left
hand_down_left	forearm_down_left
Collar_right	spine03
shoulder_up_right	Collar_right
bicep_up_right	shoulder_up_right
forearm_up_right	bicep_up_right
hand_up_right	forearm_up_right
shoulder_down_right	Collar_right
bicep_down_right	shoulder_down_right
forearm_down_right	bicep_down_right
hand_down_right	forearm_down_right
hip_left	pelvis
thigh_left	hip_left
shin_left	thigh_left
foot_left	shin_left
hip_right	pelvis
thigh_right	hip_right
shin_right	thigh_right
foot_right	shin_right
[BasePosition]
# ObjectName<tab>Tx<tab>Ty<tab>Tz<tab>Rx<tab>Ry<tab>Rz<tab>BoneLength<CR>
pelvis	0.000000	-0.438872	6.292977	90.000003	-0.000000	0.000000	1.000000
spine01	0.000000	-0.438872	7.970248	90.000003	-0.000000	0.000000	1.000000
spine02	0.000000	-0.438872	10.340697	90.000003	-0.000000	0.000000	1.000000
spine03	0.000000	-0.438872	13.021563	90.000003	-0.000000	0.000000	1.000000
neck	0.000000	-0.438872	16.182161	90.000003	-0.000000	0.000000	1.000000
head	0.000000	-0.438872	17.452044	90.000003	-0.000000	0.000014	1.000000
Collar_left	0.000000	-0.438872	16.182161	114.324943	-109.283163	-3.448282	1.000000
shoulder_up_left	-2.246972	-1.353188	15.416688	89.999955	-101.168646	0.000051	1.000000
bicep_up_left	-4.544489	-1.353188	14.963074	94.597615	-95.170613	-0.305692	1.000000
forearm_up_left	-8.587797	-1.657960	14.597347	85.600206	-93.126604	-0.279561	1.000000
hand_up_left	-12.306015	-1.353188	14.394166	85.300436	-97.657908	-0.750653	1.000000
shoulder_down_left	-2.246972	-1.353188	15.416688	97.171845	-144.053812	-0.627842	1.000000
bicep_down_left	-4.260035	-1.761673	12.646806	95.982825	-137.161086	0.000016	1.000000
forearm_down_left	-6.332484	-2.081106	10.411811	78.293864	-138.751741	0.000033	1.000000
hand_down_left	-8.648752	-1.353187	7.770453	89.999989	-141.340205	0.000017	1.000000
Collar_right	0.000000	-0.438872	16.182161	114.324943	109.283163	3.448282	1.000000
shoulder_up_right	2.246972	-1.353188	15.416688	89.999955	101.168646	-0.000051	1.000000
bicep_up_right	4.544489	-1.353188	14.963074	94.597615	95.170613	0.305692	1.000000
forearm_up_right	8.587797	-1.657960	14.597347	85.600206	93.126604	0.279561	1.000000
hand_up_right	12.306015	-1.353188	14.394166	85.300436	97.657908	0.750653	1.000000
shoulder_down_right	2.246972	-1.353188	15.416688	97.171845	144.053812	0.627842	1.000000
bicep_down_right	4.260035	-1.761673	12.646806	95.982825	137.161086	-0.000016	1.000000
forearm_down_right	6.332484	-2.081106	10.411811	78.293864	138.751741	-0.000033	1.000000
hand_down_right	8.648752	-1.353187	7.770453	89.999989	141.340205	-0.000017	1.000000
hip_left	0.000000	-0.438872	6.292977	-6.241914	-0.000005	89.999996	1.000000
thigh_left	-2.600721	-0.438872	6.008523	-79.303489	-0.000003	90.000003	1.000000
shin_left	-3.000499	-0.438872	3.892051	-90.969439	1.681318	89.968611	1.000000
foot_left	-2.953466	-0.520526	1.111133	-93.081914	-75.718200	93.179995	1.000000
hip_right	0.000000	-0.438872	6.292977	-6.241914	0.000005	-89.999996	1.000000
thigh_right	2.600721	-0.438872	6.008523	-79.303489	0.000003	-90.000003	1.000000
shin_right	3.000499	-0.438872	3.892051	-90.969439	-1.681318	-89.968611	1.000000
foot_right	2.953466	-0.520526	1.111133	-93.081914	75.718200	-93.179995	1.000000
[pelvis]
# Tx<tab>Ty<tab>Tz<tab>Rx<tab>Ry<tab>Rz<tab>BoneScaleFactor<CR>
43	0.000000	0.000000	0.000000	0.000000	-0.000000	0.000000	1.000000
44	0.000000	0.000000	0.000000	0.000000	-0.000000	0.000000	1.000000
45	0.000000	0.000000	0.000000	0.000000	-0.000000	0.000000	1.000000
46	0.000000	0.000000	0.000000	0.000000	-0.000000	0.000000	1.000000
[spine01]
# Tx<tab>Ty<tab>Tz<tab>Rx<tab>Ry<tab>Rz<tab>BoneScaleFactor<CR>
43	0.000000	0.000000	0.000000	-9.716356	0.000000	0.000000	1.000000
44	0.000000	0.000000	0.000000	-8.913233	0.000000	0.000000	1.000000
45	0.000000	0.000000	0.000000	-8.102813	0.000000	0.000000	1.000000
46	0.000000	0.000000	0.000000	-7.292393	0.000000	0.000000	1.000000
[spine02]
# Tx<tab>Ty<tab>Tz<tab>Rx<tab>Ry<tab>Rz<tab>BoneScaleFactor<CR>
43	0.000000	0.000000	0.000000	-11.923110	0.000000	0.000000	1.000000
44	0.000000	0.000000	0.000000	-10.936939	0.000000	0.000000	1.000000
45	0.000000	0.000000	0.000000	-9.941763	0.000000	0.000000	1.000000
46	-0.000000	0.000000	0.000000	-8.946584	0.000000	0.000000	1.000000
[spine03]
# Tx<tab>Ty<tab>Tz<tab>Rx<tab>Ry<tab>Rz<tab>BoneScaleFactor<CR>
43	-0.000000	-0.000001	0.000000	-9.211514	0.000000	0.000000	1.000000
44	0.000000	0.000000	0.000000	-8.450220	0.000000	0.000000	1.000000
45	0.000000	0.000000	0.000000	-7.682016	0.000000	0.000000	1.000000
46	0.000000	-0.000001	-0.000000	-6.913812	0.000000	0.000000	1.000000
[neck]
# Tx<tab>Ty<tab>Tz<tab>Rx<tab>Ry<tab>Rz<tab>BoneScaleFactor<CR>
43	0.000000	0.000000	0.000000	0.000000	-0.000000	0.000000	1.000000
44	-0.000000	-0.000001	-0.000000	0.000000	-0.000000	0.000000	1.000000
45	-0.000000	0.000000	0.000000	0.000000	-0.000000	-0.000000	1.000000
46	0.000000	0.000000	0.000000	0.000002	-0.000000	0.000000	1.000000
[head]
# Tx<tab>Ty<tab>Tz<tab>Rx<tab>Ry<tab>Rz<tab>BoneScaleFactor<CR>
43	0.000000	0.000000	-0.000000	-1.564929	-0.000000	-0.000001	1.000000
44	0.000000	0.000000	0.000000	-1.435738	-0.000000	-0.000001	1.000000
45	0.000000	0.000000	0.000000	-1.305388	-0.000000	-0.000001	1.000000
46	0.000000	0.000000	0.000000	-1.175035	-0.000000	-0.000001	1.000000
[Collar_left]
# Tx<tab>Ty<tab>Tz<tab>Rx<tab>Ry<tab>Rz<tab>BoneScaleFactor<CR>
43	0.000000	0.000000	0.000000	0.000001	0.000002	0.000000	1.000000
44	0.000000	0.000000	0.000000	0.000002	0.000002	-0.000000	1.000000
45	0.000000	0.000000	-0.000000	-0.000001	-0.000000	0.000000	1.000000
46	0.000000	0.000000	0.000000	-0.000003	0.000002	-0.000000	1.000000
[shoulder_up_left]
# Tx<tab>Ty<tab>Tz<tab>Rx<tab>Ry<tab>Rz<tab>BoneScaleFactor<CR>
43	-0.000003	-0.000000	0.000000	-0.000001	-0.000007	-23.007982	1.000000
44	-0.000001	0.000000	-0.000000	-0.000001	-0.000003	-21.094887	1.000000
45	-0.000001	-0.000000	0.000000	-0.000001	-0.000007	-19.163520	1.000000
46	0.000000	-0.000000	0.000000	-0.000001	-0.000005	-17.232144	1.000000
[bicep_up_left]
# Tx<tab>Ty<tab>Tz<tab>Rx<tab>Ry<tab>Rz<tab>BoneScaleFactor<CR>
43	0.000001	0.000001	-0.000000	-0.000001	-0.000000	0.000002	1.000000
44	0.000000	0.000000	0.000000	-0.000001	-0.000000	0.000001	1.000000
45	0.000001	0.000000	0.000000	-0.000000	0.000002	0.000000	1.000000
46	-0.000002	-0.000000	0.000000	0.000000	-0.000000	-0.000001	1.000000
[forearm_up_left]
# Tx<tab>Ty<tab>Tz<tab>Rx<tab>Ry<tab>Rz<tab>BoneScaleFactor<CR>
43	0.000001	0.000001	0.000000	0.000000	-0.000000	0.000000	1.000000
44	0.000001	0.000001	0.000000	0.000000	-0.000000	-0.000002	1.000000
45	0.000000	0.000000	0.000000	0.000000	-0.000000	0.000000	1.000000
46	0.000001	-0.000001	0.000000	0.000000	-0.000002	0.000000	1.000000
[hand_up_left]
# Tx<tab>Ty<tab>Tz<tab>Rx<tab>Ry<tab>Rz<tab>BoneScaleFactor<CR>
43	-0.000001	0.000000	0.000000	-1.085319	-23.810430	-4.228221	1.000000
44	-0.000002	0.000002	-0.000000	-1.061418	-21.826720	-3.871923	1.000000
45	0.000001	0.000000	-0.000000	-1.024306	-19.824125	-3.516036	1.000000
46	-0.000001	0.000001	0.000000	-0.974568	-17.821772	-3.163002	1.000000
[shoulder_down_left]
# Tx<tab>Ty<tab>Tz<tab>Rx<tab>Ry<tab>Rz<tab>BoneScaleFactor<CR>
43	0.000000	0.000000	0.000000	-0.000002	-0.000000	-0.000002	1.000000
44	0.000000	0.000001	0.000000	0.000000	-0.000000	0.000005	1.000000
45	-0.000001	0.000000	0.000000	0.000002	-0.000000	0.000000	1.000000
46	0.000000	0.000001	0.000000	-0.000002	-0.000002	0.000000	1.000000
[bicep_down_left]
# Tx<tab>Ty<tab>Tz<tab>Rx<tab>Ry<tab>Rz<tab>BoneScaleFactor<CR>
43	-0.000001	-0.000000	0.000000	-22.547378	-18.817977	5.893410	1.000000
44	0.000001	0.000000	0.000000	-20.514236	-17.351240	5.089757	1.000000
45	0.000000	0.000000	0.000000	-18.498674	-15.843650	4.339807	1.000000
46	0.000001	0.000000	0.000000	-16.517993	-14.311925	3.650366	1.000000
[forearm_down_left]
# Tx<tab>Ty<tab>Tz<tab>Rx<tab>Ry<tab>Rz<tab>BoneScaleFactor<CR>
43	0.000000	0.000000	0.000000	-15.413210	-13.477138	-0.946636	1.000000
44	0.000000	-0.000001	-0.000000	-14.116381	-12.353655	-1.008231	1.000000
45	0.000000	0.000000	0.000000	-12.813935	-11.218492	-1.043844	1.000000
46	0.000001	0.000000	-0.000000	-11.517055	-10.082823	-1.053106	1.000000
[hand_down_left]
# Tx<tab>Ty<tab>Tz<tab>Rx<tab>Ry<tab>Rz<tab>BoneScaleFactor<CR>
43	0.000001	-0.000002	0.000000	0.000000	-0.000000	-0.000003	1.000000
44	-0.000002	-0.000001	0.000000	0.000001	-0.000000	-0.000002	1.000000
45	-0.000001	0.000000	0.000000	-0.000001	-0.000000	0.000002	1.000000
46	0.000000	-0.000000	0.000000	0.000001	0.000001	-0.000002	1.000000
[Collar_right]
# Tx<tab>Ty<tab>Tz<tab>Rx<tab>Ry<tab>Rz<tab>BoneScaleFactor<CR>
43	0.000000	0.000000	0.000000	0.000001	-0.000002	-0.000000	1.000000
44	0.000000	0.000000	0.000000	0.000002	-0.000002	0.000000	1.000000
45	0.000000	0.000000	-0.000000	-0.000001	-0.000000	-0.000000	1.000000
46	0.000000	0.000000	0.000000	-0.000003	-0.000002	0.000000	1.000000
[shoulder_up_right]
# Tx<tab>Ty<tab>Tz<tab>Rx<tab>Ry<tab>Rz<tab>BoneScaleFactor<CR>
43	0.000003	-0.000000	0.000000	3.460847	0.142430	25.872734	1.000000
44	0.000001	0.000000	-0.000000	3.173784	0.190482	23.717152	1.000000
45	0.000001	-0.000000	0.000000	2.882304	0.228011	21.540395	1.000000
46	0.000000	-0.000000	0.000000	2.589609	0.254441	19.363470	1.000000
[bicep_up_right]
# Tx<tab>Ty<tab>Tz<tab>Rx<tab>Ry<tab>Rz<tab>BoneScaleFactor<CR>
43	-0.000001	0.000001	0.000000	-0.000001	-0.000002	-0.000002	1.000000
44	-0.000001	-0.000001	0.000000	0.000000	0.000002	0.000000	1.000000
45	0.000000	0.000000	0.000000	0.000000	-0.000002	-0.000002	1.000000
46	0.000003	0.000000	0.000000	0.000000	-0.000000	0.000001	1.000000
[forearm_up_right]
# Tx<tab>Ty<tab>Tz<tab>Rx<tab>Ry<tab>Rz<tab>BoneScaleFactor<CR>
43	0.000000	0.000000	-0.000000	-20.591646	-12.982930	15.697887	1.000000
44	0.000000	0.000000	-0.000001	-18.713354	-12.129293	14.194132	1.000000
45	0.000000	0.000000	0.000000	-16.846484	-11.219314	12.710209	1.000000
46	0.000001	-0.000001	0.000000	-15.009942	-10.262847	11.261770	1.000000
[hand_up_right]
# Tx<tab>Ty<tab>Tz<tab>Rx<tab>Ry<tab>Rz<tab>BoneScaleFactor<CR>
43	-0.000001	0.000000	-0.000001	2.805107	33.993766	3.164223	1.000000
44	0.000000	0.000002	0.000000	2.451996	31.149187	2.786293	1.000000
45	0.000001	0.000000	-0.000001	2.126908	28.273554	2.435413	1.000000
46	0.000000	0.000001	-0.000001	1.829463	25.396306	2.111396	1.000000
[shoulder_down_right]
# Tx<tab>Ty<tab>Tz<tab>Rx<tab>Ry<tab>Rz<tab>BoneScaleFactor<CR>
43	0.000000	0.000000	0.000000	-0.000002	-0.000000	0.000002	1.000000
44	0.000000	0.000001	0.000000	0.000000	-0.000000	-0.000005	1.000000
45	0.000001	0.000000	0.000000	0.000002	-0.000000	0.000000	1.000000
46	0.000000	0.000001	0.000000	-0.000002	0.000002	0.000000	1.000000
[bicep_down_right]
# Tx<tab>Ty<tab>Tz<tab>Rx<tab>Ry<tab>Rz<tab>BoneScaleFactor<CR>
43	0.000001	-0.000000	0.000000	-22.547378	18.817977	-5.893410	1.000000
44	-0.000001	0.000000	0.000000	-20.514236	17.351240	-5.089757	1.000000
45	0.000000	0.000000	0.000000	-18.498674	15.843650	-4.339807	1.000000
46	-0.000001	0.000000	0.000000	-16.517993	14.311925	-3.650366	1.000000
[forearm_down_right]
# Tx<tab>Ty<tab>Tz<tab>Rx<tab>Ry<tab>Rz<tab>BoneScaleFactor<CR>
43	0.000000	0.000000	0.000000	-15.413210	13.477138	0.946636	1.000000
44	0.000000	-0.000001	-0.000000	-14.116381	12.353655	1.008231	1.000000
45	0.000000	0.000000	0.000000	-12.813935	11.218492	1.043844	1.000000
46	-0.000001	0.000000	-0.000000	-11.517055	10.082823	1.053106	1.000000
[hand_down_right]
# Tx<tab>Ty<tab>Tz<tab>Rx<tab>Ry<tab>Rz<tab>BoneScaleFactor<CR>
43	-0.000001	-0.000002	0.000000	0.000000	-0.000000	0.000003	1.000000
44	0.000002	-0.000001	0.000000	0.000001	-0.000000	0.000002	1.000000
45	0.000001	0.000000	0.000000	-0.000001	-0.000000	-0.000002	1.000000
46	0.000000	-0.000000	0.000000	0.000001	-0.000001	0.000002	1.000000
[hip_left]
# Tx<tab>Ty<tab>Tz<tab>Rx<tab>Ry<tab>Rz<tab>BoneScaleFactor<CR>
43	0.000000	-0.000000	0.000000	0.000000	-0.000000	-0.000000	1.000000
44	0.000000	-0.000000	0.000000	0.000000	-0.000000	-0.000000	1.000000
45	0.000000	-0.000000	0.000000	0.000000	-0.000000	-0.000000	1.000000
46	0.000000	-0.000000	0.000000	0.000000	-0.000000	-0.000000	1.000000
[thigh_left]
# Tx<tab>Ty<tab>Tz<tab>Rx<tab>Ry<tab>Rz<tab>BoneScaleFactor<CR>
43	0.000000	-0.000000	0.000000	0.000001	-0.000000	0.000000	1.000000
44	0.000000	-0.000000	0.000000	0.000001	-0.000000	0.000000	1.000000
45	0.000000	-0.000000	0.000000	0.000001	-0.000000	0.000000	1.000000
46	0.000000	-0.000000	0.000000	0.000001	-0.000000	0.000000	1.000000
[shin_left]
# Tx<tab>Ty<tab>Tz<tab>Rx<tab>Ry<tab>Rz<tab>BoneScaleFactor<CR>
43	0.000000	-0.000000	0.000000	0.000000	0.000000	-0.000000	1.000000
44	0.000000	-0.000000	0.000000	0.000000	0.000000	-0.000000	1.000000
45	0.000000	-0.000000	0.000000	0.000000	0.000000	-0.000000	1.000000
46	0.000000	-0.000000	0.000000	0.000000	0.000000	-0.000000	1.000000
[foot_left]
# Tx<tab>Ty<tab>Tz<tab>Rx<tab>Ry<tab>Rz<tab>BoneScaleFactor<CR>
43	0.000000	-0.000000	0.000000	-0.000000	-0.000000	0.000000	1.000000
44	0.000000	-0.000000	0.000000	-0.000000	-0.000000	0.000000	1.000000
45	0.000000	-0.000000	0.000000	-0.000000	-0.000000	0.000000	1.000000
46	0.000000	-0.000000	0.000000	-0.000000	-0.000000	0.000000	1.000000
[hip_right]
# Tx<tab>Ty<tab>Tz<tab>Rx<tab>Ry<tab>Rz<tab>BoneScaleFactor<CR>
43	-0.000000	-0.000000	0.000000	0.000000	0.000000	0.000000	1.000000
44	-0.000000	-0.000000	0.000000	0.000000	0.000000	0.000000	1.000000
45	-0.000000	-0.000000	0.000000	0.000000	0.000000	0.000000	1.000000
46	-0.000000	-0.000000	0.000000	0.000000	0.000000	0.000000	1.000000
[thigh_right]
# Tx<tab>Ty<tab>Tz<tab>Rx<tab>Ry<tab>Rz<tab>BoneScaleFactor<CR>
43	-0.000000	-0.000000	0.000000	0.000001	0.000000	-0.000000	1.000000
44	-0.000000	-0.000000	0.000000	0.000001	0.000000	-0.000000	1.000000
45	-0.000000	-0.000000	0.000000	0.000001	0.000000	-0.000000	1.000000
46	-0.000000	-0.000000	0.000000	0.000001	0.000000	-0.000000	1.000000
[shin_right]
# Tx<tab>Ty<tab>Tz<tab>Rx<tab>Ry<tab>Rz<tab>BoneScaleFactor<CR>
43	0.000000	-0.000000	0.000000	0.000000	-0.000000	0.000000	1.000000
44	0.000000	-0.000000	0.000000	0.000000	-0.000000	0.000000	1.000000
45	0.000000	-0.000000	0.000000	0.000000	-0.000000	0.000000	1.000000
46	0.000000	-0.000000	0.000000	0.000000	-0.000000	0.000000	1.000000
[foot_right]
# Tx<tab>Ty<tab>Tz<tab>Rx<tab>Ry<tab>Rz<tab>BoneScaleFactor<CR>
43	-0.000000	-0.000000	0.000000	-0.000000	-0.000000	0.000000	1.000000
44	-0.000000	-0.000000	0.000000	-0.000000	-0.000000	0.000000	1.000000
45	-0.000000	-0.000000	0.000000	-0.000000	-0.000000	0.000000	1.000000
46	-0.000000	-0.000000	0.000000	-0.000000	-0.000000	0.000000	1.000000
[EndOfFile]
